<?xml version="1.0" encoding="UTF-8"?>
<svg width="118px" height="119px" viewBox="0 0 118 119" version="1.1" xmlns="http://www.w3.org/2000/svg" xmlns:xlink="http://www.w3.org/1999/xlink">
    <!-- Generator: Sketch 48.2 (47327) - http://www.bohemiancoding.com/sketch -->
    <title>icon@128</title>
    <desc>Created with Sketch.</desc>
    <defs>
        <rect id="path-1" x="0" y="0" width="128" height="128"></rect>
    </defs>
    <g id="icon@" stroke="none" stroke-width="1" fill="none" fill-rule="evenodd" transform="translate(-38.000000, -36.000000)">
        <g id="icon@128" transform="translate(33.000000, 28.000000)">
            <mask id="mask-2" fill="white">
                <use xlink:href="#path-1"></use>
            </mask>
            <g id="Mask"></g>
            <path d="M87.6765943,105.78348 C90.0698962,104.244928 91.4374973,103.732078 93.1469987,103.732078 C97.5917024,103.732078 101.181655,107.322031 101.181655,111.766734 C101.181655,114.330987 100.326905,116.382388 96.9079018,118.94664 C90.2408464,123.733244 80.4966884,126.297496 65.9659266,126.297496 C33.31445,126.297496 5.96242775,101.509726 5.96242775,68.5163493 C5.96242775,33.9844212 31.6049486,8 66.3078269,8 C97.4207522,8 122.037572,31.9330195 122.037572,63.3878451 C122.037572,94.5007704 98.9593035,97.0650225 93.1469987,97.0650225 C83.2318907,97.0650225 75.3681843,92.4493688 71.0944308,86.637064 C66.3078269,91.4236679 60.6664723,94.8426707 53.4865664,94.8426707 C38.1010539,94.8426707 31.6049486,84.0728119 31.6049486,70.9096512 C31.6049486,53.472737 44.7681093,37.4034239 61.8631233,37.4034239 C67.3335277,37.4034239 72.8039322,38.9419752 78.2743366,42.360978 C82.2061898,44.9252301 83.4028408,47.318532 83.4028408,49.8827841 C83.4028408,53.1308367 81.5223893,55.866039 78.9581372,57.0626899 C81.6933394,58.4302911 83.7447411,61.3364434 83.7447411,64.5844961 C83.7447411,67.1487482 82.5480901,69.3711 82.5480901,72.4482025 C82.5480901,76.8929061 85.2832923,80.6538092 91.6084475,80.8247593 C96.9079018,80.8247593 105.797309,79.286208 105.797309,63.3878451 C105.797309,43.8995292 92.292248,24.2402632 66.3078269,24.2402632 C44.2552589,24.2402632 22.202691,39.4548256 22.202691,68.5163493 C22.202691,95.8683715 46.819511,110.399133 66.8206773,110.399133 C76.7357854,110.399133 82.5480901,109.031532 87.6765943,105.78348 Z M68.1882784,61.6783437 C69.2139792,59.4559919 70.4106302,58.0883908 71.9491815,57.2336401 C69.2139792,55.3531886 65.6240263,53.3017869 62.0340734,53.3017869 C53.8284667,53.3017869 47.6742617,61.8492938 47.6742617,70.9096512 C47.6742617,76.8929061 50.2385138,78.7733576 53.4865664,78.7733576 C59.8117216,78.7733576 66.478777,66.1230473 68.1882784,61.6783437 Z" id="@" fill="#000000" mask="url(#mask-2)"></path>
        </g>
    </g>
</svg>