<?xml version="1.0" encoding="UTF-8"?>
<svg width="98px" height="98px" viewBox="0 0 98 98" version="1.1" xmlns="http://www.w3.org/2000/svg" xmlns:xlink="http://www.w3.org/1999/xlink">
    <!-- Generator: Sketch 48.2 (47327) - http://www.bohemiancoding.com/sketch -->
    <title>Page 1</title>
    <desc>Created with Sketch.</desc>
    <defs></defs>
    <g id="Artboard-2" stroke="none" stroke-width="1" fill="none" fill-rule="evenodd" transform="translate(-65.000000, -27.000000)">
        <path d="M113.699001,27.601997 C86.801001,27.601997 65,49.402997 65,76.300997 C65,103.198997 86.801001,125 113.699001,125 C140.597001,125 162.398001,103.198997 162.398001,76.300997 C162.398001,49.402997 140.597001,27.601997 113.699001,27.601997 Z M138.801001,76.402997 C138.801001,90.203997 127.500001,101.504997 113.699001,101.504997 C99.898001,101.504997 88.597001,90.203997 88.597001,76.402997 L88.698561,75.203797 C88.999341,68.902997 91.499361,63.101797 95.999361,58.601797 C97.397761,57.203397 99.897761,57.203397 101.397761,58.601797 C102.096981,59.301017 102.499361,60.300997 102.499361,61.300997 C102.499361,62.300997 102.100921,63.300997 101.397761,64.000197 C96.698561,68.699397 95.096961,75.500197 97.198561,81.898197 L97.397781,82.499757 C99.897781,89.300557 106.397781,93.901757 113.698781,93.901757 C123.397981,93.901757 131.198781,86.003357 131.198781,76.401757 C131.198781,71.702557 129.397981,67.401757 126.198781,64.100757 L126.198781,68.100757 C126.198781,70.202357 124.499581,71.901557 122.397981,71.901557 C120.296381,71.901557 118.597181,70.202357 118.597181,68.100757 L118.597181,54.901757 C118.597181,52.800157 120.296381,51.100957 122.397981,51.100957 L134.999981,51.100957 C137.101581,51.100957 138.800781,52.800157 138.800781,54.901757 C138.800781,57.003357 137.101581,58.702557 134.999981,58.702557 L131.499981,58.702557 C136.199181,63.401757 138.800781,69.698557 138.800781,76.401557 L138.801001,76.402997 Z" id="Page-1" fill="#E75163"></path>
    </g>
</svg>